# xmcd CD database file
#
# Track frame offsets:
#	150
#	24706
#	39795
#	53269
#	73329
#	87975
#	103220
#	115253
#	126874
#	145405
#
# Disc length: 2796 seconds
#
# Revision: 1
# Processed by: cddbd v1.5.2PL0 Copyright (c) Steve Scherf et al.
# Submitted via: Feurio! 1.68 - http://www.feurio.com
#
DISCID=890aea0a
DTITLE=History Of Guns - APOPHENIA
DYEAR=2006
DGENRE=
TTITLE0=Death Of A Nation
TTITLE1=Your Obedient Servants
TTITLE2=I Am - You Are
TTITLE3=1 In 3
TTITLE4=Apophenia
TTITLE5=Divide And Conquer
TTITLE6=T.V. Spotlight
TTITLE7=Does Anyone Remember The War? (120/189) Censored version
TTITLE8=Battle Of The Bands
TTITLE9=History Of Guns - After The Breakdown
EXTD=
EXTT0=
EXTT1=
EXTT2=
EXTT3=
EXTT4=
EXTT5=
EXTT6=
EXTT7=
EXTT8=
EXTT9=
PLAYORDER=
